<svg width="19" height="20" viewBox="0 0 19 20" fill="none" xmlns="http://www.w3.org/2000/svg">
<path d="M9.56945 18.0711C13.9519 18.0711 17.4516 14.4144 17.4516 9.97007C17.4516 5.52574 13.9519 1.86905 9.56945 1.86905C5.18696 1.86905 1.68726 5.52574 1.68726 9.97007C1.68726 14.4144 5.18696 18.0711 9.56945 18.0711Z" stroke="#FFFCFC" stroke-width="2"/>
<path d="M9.56945 18.0711C13.9519 18.0711 17.4516 14.4144 17.4516 9.97007C17.4516 5.52574 13.9519 1.86905 9.56945 1.86905C5.18696 1.86905 1.68726 5.52574 1.68726 9.97007C1.68726 14.4144 5.18696 18.0711 9.56945 18.0711Z" stroke="#FFFCFC" stroke-width="2"/>
<path d="M10.7522 8.50831C12.1977 9.99974 13.2297 11.5681 13.7504 12.8651C14.0116 13.5159 14.1246 14.0499 14.1286 14.4442C14.1325 14.8337 14.0333 15.0003 13.9637 15.0721C13.8941 15.144 13.7326 15.2464 13.3551 15.2423C12.973 15.2382 12.4554 15.1216 11.8246 14.8521C10.5677 14.3149 9.04759 13.25 7.60212 11.7586C6.15665 10.2672 5.1246 8.69876 4.60396 7.4018C4.34271 6.75101 4.22974 6.21695 4.22575 5.8227C4.22181 5.4332 4.32105 5.26659 4.39067 5.19475C4.46029 5.12291 4.62177 5.02053 4.99927 5.02459C5.38137 5.0287 5.89897 5.14527 6.5297 5.41482C7.78669 5.95202 9.30676 7.01689 10.7522 8.50831Z" stroke="#FAFAFA" stroke-width="2"/>
<line y1="-1" x2="14.7308" y2="-1" transform="matrix(-0.695956 0.718085 -0.695956 -0.718085 14.2554 4.38394)" stroke="white" stroke-width="2"/>
</svg>
