<svg width="100" height="33" viewBox="0 0 100 33" fill="none" xmlns="http://www.w3.org/2000/svg">
<circle cx="24" cy="10" r="4" stroke="white" stroke-width="2"/>
<path d="M16 24V22C16 19.2386 18.2386 17 21 17H26C28.7614 17 31 19.2386 31 22V24" stroke="white" stroke-width="2"/>
<path d="M47.6514 17.8501H52.7051V19H46.2378V8.33594H47.6514V17.8501ZM53.7378 14.9644C53.7378 14.188 53.8892 13.4897 54.1919 12.8696C54.4995 12.2495 54.9243 11.771 55.4663 11.4341C56.0132 11.0972 56.6357 10.9287 57.334 10.9287C58.4131 10.9287 59.2847 11.3022 59.9487 12.0493C60.6177 12.7964 60.9521 13.79 60.9521 15.0303V15.1255C60.9521 15.897 60.8032 16.5903 60.5054 17.2056C60.2124 17.8159 59.79 18.292 59.2383 18.6338C58.6914 18.9756 58.0615 19.1465 57.3486 19.1465C56.2744 19.1465 55.4028 18.7729 54.7339 18.0259C54.0698 17.2788 53.7378 16.29 53.7378 15.0596V14.9644ZM55.1001 15.1255C55.1001 16.0044 55.3027 16.71 55.708 17.2422C56.1182 17.7744 56.665 18.0405 57.3486 18.0405C58.0371 18.0405 58.584 17.772 58.9893 17.2349C59.3945 16.6929 59.5972 15.936 59.5972 14.9644C59.5972 14.0952 59.3896 13.3921 58.9746 12.855C58.5645 12.313 58.0176 12.042 57.334 12.042C56.665 12.042 56.1255 12.3081 55.7153 12.8403C55.3052 13.3726 55.1001 14.1343 55.1001 15.1255ZM62.3291 14.9717C62.3291 13.7363 62.6147 12.7549 63.186 12.0273C63.7573 11.2949 64.5142 10.9287 65.4565 10.9287C66.4233 10.9287 67.1777 11.2705 67.7197 11.9541L67.7856 11.0752H69.0234V18.8096C69.0234 19.835 68.7183 20.6431 68.1079 21.2339C67.5024 21.8247 66.687 22.1201 65.6616 22.1201C65.0903 22.1201 64.5312 21.998 63.9844 21.7539C63.4375 21.5098 63.02 21.1753 62.7319 20.7505L63.4351 19.9375C64.0161 20.6553 64.7266 21.0142 65.5664 21.0142C66.2256 21.0142 66.7383 20.8286 67.1045 20.4575C67.4756 20.0864 67.6611 19.564 67.6611 18.8901V18.209C67.1191 18.834 66.3794 19.1465 65.4419 19.1465C64.5142 19.1465 63.7622 18.7729 63.186 18.0259C62.6147 17.2788 62.3291 16.2607 62.3291 14.9717ZM63.6914 15.1255C63.6914 16.019 63.8745 16.7222 64.2407 17.2349C64.6069 17.7427 65.1196 17.9966 65.7788 17.9966C66.6333 17.9966 67.2607 17.6084 67.6611 16.832V13.2139C67.2461 12.457 66.6235 12.0786 65.7935 12.0786C65.1343 12.0786 64.6191 12.335 64.248 12.8477C63.877 13.3604 63.6914 14.1196 63.6914 15.1255ZM76.2671 19H74.9121V11.0752H76.2671V19ZM74.8022 8.97314C74.8022 8.75342 74.8682 8.56787 75 8.4165C75.1367 8.26514 75.3369 8.18945 75.6006 8.18945C75.8643 8.18945 76.0645 8.26514 76.2012 8.4165C76.3379 8.56787 76.4062 8.75342 76.4062 8.97314C76.4062 9.19287 76.3379 9.37598 76.2012 9.52246C76.0645 9.66895 75.8643 9.74219 75.6006 9.74219C75.3369 9.74219 75.1367 9.66895 75 9.52246C74.8682 9.37598 74.8022 9.19287 74.8022 8.97314ZM79.7241 11.0752L79.7681 12.0713C80.3735 11.3096 81.1646 10.9287 82.1411 10.9287C83.8159 10.9287 84.6606 11.8735 84.6753 13.7632V19H83.3203V13.7559C83.3154 13.1846 83.1836 12.7622 82.9248 12.4888C82.6709 12.2153 82.2729 12.0786 81.731 12.0786C81.2915 12.0786 80.9058 12.1958 80.5737 12.4302C80.2417 12.6646 79.9829 12.9722 79.7974 13.353V19H78.4424V11.0752H79.7241Z" fill="white"/>
</svg>
