<svg width="100" height="33" viewBox="0 0 100 33" fill="none" xmlns="http://www.w3.org/2000/svg">
<ellipse cx="7.78947" cy="19.5" rx="1.57895" ry="1.5" fill="#FFFCFC"/>
<ellipse cx="7.78947" cy="14.5" rx="1.57895" ry="1.5" fill="white"/>
<ellipse cx="7.78947" cy="9.5" rx="1.57895" ry="1.5" fill="#FFFEFE"/>
<ellipse cx="13.0526" cy="19.5" rx="1.57895" ry="1.5" fill="#FFFEFE"/>
<ellipse cx="13.0526" cy="14.5" rx="1.57895" ry="1.5" fill="#FFFEFE"/>
<ellipse cx="13.0526" cy="9.5" rx="1.57895" ry="1.5" fill="#FFFEFE"/>
<ellipse cx="18.3158" cy="19.5" rx="1.57895" ry="1.5" fill="#FFFEFE"/>
<ellipse cx="18.3158" cy="14.5" rx="1.57895" ry="1.5" fill="#FFFDFD"/>
<ellipse cx="18.3158" cy="9.5" rx="1.57895" ry="1.5" fill="#FFFBFB"/>
<path d="M33.0651 15.8252V20H31.6588V9.33594H35.592C36.7589 9.33594 37.672 9.63379 38.3312 10.2295C38.9953 10.8252 39.3273 11.6138 39.3273 12.5952C39.3273 13.6304 39.0026 14.4287 38.3532 14.9902C37.7087 15.5469 36.7834 15.8252 35.5773 15.8252H33.0651ZM33.0651 14.6753H35.592C36.3439 14.6753 36.9201 14.4995 37.3205 14.1479C37.7209 13.7915 37.9211 13.2788 37.9211 12.6099C37.9211 11.9751 37.7209 11.4673 37.3205 11.0864C36.9201 10.7056 36.3708 10.5078 35.6725 10.4932H33.0651V14.6753ZM44.7399 13.291C44.5348 13.2568 44.3127 13.2397 44.0734 13.2397C43.1847 13.2397 42.5817 13.6182 42.2643 14.375V20H40.9093V12.0752H42.2277L42.2497 12.9907C42.694 12.2827 43.3239 11.9287 44.1393 11.9287C44.403 11.9287 44.6032 11.9629 44.7399 12.0312V13.291ZM45.487 15.9644C45.487 15.188 45.6383 14.4897 45.9411 13.8696C46.2487 13.2495 46.6735 12.771 47.2155 12.4341C47.7624 12.0972 48.3849 11.9287 49.0832 11.9287C50.1623 11.9287 51.0338 12.3022 51.6979 13.0493C52.3669 13.7964 52.7013 14.79 52.7013 16.0303V16.1255C52.7013 16.897 52.5524 17.5903 52.2545 18.2056C51.9616 18.8159 51.5392 19.292 50.9875 19.6338C50.4406 19.9756 49.8107 20.1465 49.0978 20.1465C48.0236 20.1465 47.152 19.7729 46.4831 19.0259C45.819 18.2788 45.487 17.29 45.487 16.0596V15.9644ZM46.8493 16.1255C46.8493 17.0044 47.0519 17.71 47.4572 18.2422C47.8673 18.7744 48.4142 19.0405 49.0978 19.0405C49.7863 19.0405 50.3332 18.772 50.7384 18.2349C51.1437 17.6929 51.3463 16.936 51.3463 15.9644C51.3463 15.0952 51.1388 14.3921 50.7238 13.855C50.3136 13.313 49.7668 13.042 49.0832 13.042C48.4142 13.042 47.8747 13.3081 47.4645 13.8403C47.0544 14.3726 46.8493 15.1343 46.8493 16.1255ZM54.071 15.9717C54.071 14.7559 54.359 13.7793 54.9352 13.042C55.5114 12.2998 56.2658 11.9287 57.1984 11.9287C58.1261 11.9287 58.861 12.2461 59.403 12.8809V8.75H60.758V20H59.5128L59.4469 19.1504C58.9049 19.8145 58.1505 20.1465 57.1837 20.1465C56.2658 20.1465 55.5163 19.7705 54.9352 19.0186C54.359 18.2666 54.071 17.2852 54.071 16.0742V15.9717ZM55.4259 16.1255C55.4259 17.0239 55.6115 17.7271 55.9826 18.2349C56.3537 18.7427 56.8664 18.9966 57.5207 18.9966C58.38 18.9966 59.0075 18.6108 59.403 17.8394V14.1992C58.9977 13.4521 58.3752 13.0786 57.5353 13.0786C56.8712 13.0786 56.3537 13.335 55.9826 13.8477C55.6115 14.3604 55.4259 15.1196 55.4259 16.1255ZM67.7599 19.2163C67.2326 19.8364 66.4587 20.1465 65.4381 20.1465C64.5934 20.1465 63.9489 19.9023 63.5045 19.4141C63.0651 18.9209 62.8429 18.1934 62.838 17.2314V12.0752H64.193V17.1948C64.193 18.396 64.6813 18.9966 65.6579 18.9966C66.693 18.9966 67.3815 18.6108 67.7233 17.8394V12.0752H69.0783V20H67.7892L67.7599 19.2163ZM74.3224 19.0405C74.8058 19.0405 75.2282 18.894 75.5895 18.6011C75.9508 18.3081 76.151 17.9419 76.1901 17.5024H77.4718C77.4474 17.9565 77.2912 18.3887 77.0031 18.7988C76.715 19.209 76.3293 19.5361 75.8459 19.7803C75.3673 20.0244 74.8595 20.1465 74.3224 20.1465C73.2433 20.1465 72.3839 19.7876 71.7443 19.0698C71.1095 18.3472 70.7921 17.3608 70.7921 16.1108V15.8838C70.7921 15.1123 70.9337 14.4263 71.217 13.8257C71.5002 13.2251 71.9054 12.7588 72.4328 12.4268C72.965 12.0947 73.5924 11.9287 74.3151 11.9287C75.2038 11.9287 75.9411 12.1948 76.527 12.7271C77.1178 13.2593 77.4328 13.9502 77.4718 14.7998H76.1901C76.151 14.2871 75.9557 13.8672 75.6042 13.54C75.2575 13.208 74.8278 13.042 74.3151 13.042C73.6266 13.042 73.092 13.291 72.7111 13.7891C72.3351 14.2822 72.1471 14.9976 72.1471 15.9351V16.1914C72.1471 17.1045 72.3351 17.8076 72.7111 18.3008C73.0871 18.7939 73.6242 19.0405 74.3224 19.0405ZM80.8337 10.1562V12.0752H82.3131V13.1226H80.8337V18.0371C80.8337 18.3545 80.8996 18.5938 81.0314 18.7549C81.1632 18.9111 81.3878 18.9893 81.7052 18.9893C81.8615 18.9893 82.0763 18.96 82.3498 18.9014V20C81.9933 20.0977 81.6466 20.1465 81.3097 20.1465C80.7043 20.1465 80.2477 19.9634 79.9401 19.5972C79.6325 19.231 79.4787 18.7109 79.4787 18.0371V13.1226H78.0358V12.0752H79.4787V10.1562H80.8337ZM88.5168 17.8979C88.5168 17.5317 88.3776 17.2485 88.0993 17.0483C87.8258 16.8433 87.3449 16.6675 86.6564 16.521C85.9728 16.3745 85.4284 16.1987 85.0231 15.9937C84.6227 15.7886 84.3249 15.5444 84.1295 15.2612C83.9391 14.978 83.8439 14.6411 83.8439 14.2505C83.8439 13.6011 84.1173 13.0518 84.6642 12.6025C85.216 12.1533 85.9191 11.9287 86.7736 11.9287C87.672 11.9287 88.3996 12.1606 88.9562 12.6245C89.5177 13.0884 89.7985 13.6816 89.7985 14.4043H88.4362C88.4362 14.0332 88.2775 13.7134 87.9601 13.4448C87.6476 13.1763 87.2521 13.042 86.7736 13.042C86.2804 13.042 85.8947 13.1494 85.6164 13.3643C85.338 13.5791 85.1989 13.8599 85.1989 14.2065C85.1989 14.5337 85.3283 14.7803 85.5871 14.9463C85.8459 15.1123 86.3122 15.271 86.986 15.4224C87.6647 15.5737 88.214 15.7544 88.6339 15.9644C89.0539 16.1743 89.3639 16.4282 89.5641 16.7261C89.7692 17.019 89.8717 17.3779 89.8717 17.8027C89.8717 18.5107 89.5885 19.0796 89.0221 19.5093C88.4557 19.9341 87.7209 20.1465 86.8175 20.1465C86.1828 20.1465 85.6212 20.0342 85.133 19.8096C84.6447 19.585 84.2614 19.2725 83.9831 18.8721C83.7096 18.4668 83.5729 18.0298 83.5729 17.561H84.9279C84.9523 18.0151 85.133 18.3765 85.4699 18.645C85.8117 18.9087 86.2609 19.0405 86.8175 19.0405C87.3302 19.0405 87.7404 18.938 88.048 18.7329C88.3605 18.5229 88.5168 18.2446 88.5168 17.8979Z" fill="#FFFDFD"/>
</svg>
