<svg width="70" height="33" viewBox="0 0 70 33" fill="none" xmlns="http://www.w3.org/2000/svg">
<rect x="0.5" y="0.5" width="69" height="32" rx="16" fill="white"/>
<path d="M15.3799 16.2466C14.1738 15.8999 13.2949 15.4751 12.7432 14.9722C12.1963 14.4644 11.9229 13.8394 11.9229 13.0972C11.9229 12.2573 12.2573 11.564 12.9263 11.0171C13.6001 10.4653 14.4741 10.1895 15.5483 10.1895C16.2808 10.1895 16.9326 10.3311 17.5039 10.6143C18.0801 10.8975 18.5244 11.2881 18.8369 11.7861C19.1543 12.2842 19.313 12.8286 19.313 13.4194H17.8994C17.8994 12.7749 17.6943 12.2695 17.2842 11.9033C16.874 11.5322 16.2954 11.3467 15.5483 11.3467C14.855 11.3467 14.313 11.5005 13.9224 11.8081C13.5366 12.1108 13.3438 12.5332 13.3438 13.0752C13.3438 13.5098 13.5269 13.8784 13.8931 14.1812C14.2642 14.479 14.8916 14.7524 15.7754 15.0015C16.6641 15.2505 17.3574 15.5264 17.8555 15.8291C18.3584 16.127 18.7295 16.4761 18.9688 16.8765C19.2129 17.2769 19.335 17.748 19.335 18.29C19.335 19.1543 18.998 19.8477 18.3242 20.3701C17.6504 20.8877 16.7495 21.1465 15.6216 21.1465C14.8892 21.1465 14.2056 21.0073 13.5708 20.729C12.936 20.4458 12.4453 20.0601 12.0986 19.5718C11.7568 19.0835 11.5859 18.5293 11.5859 17.9092H12.9995C12.9995 18.5537 13.2363 19.064 13.71 19.4399C14.1885 19.811 14.8257 19.9966 15.6216 19.9966C16.3638 19.9966 16.9326 19.8452 17.3281 19.5425C17.7236 19.2397 17.9214 18.8271 17.9214 18.3047C17.9214 17.7822 17.7383 17.3794 17.3721 17.0962C17.0059 16.8081 16.3418 16.5249 15.3799 16.2466ZM22.4038 21H21.0488V13.0752H22.4038V21ZM20.939 10.9731C20.939 10.7534 21.0049 10.5679 21.1367 10.4165C21.2734 10.2651 21.4736 10.1895 21.7373 10.1895C22.001 10.1895 22.2012 10.2651 22.3379 10.4165C22.4746 10.5679 22.543 10.7534 22.543 10.9731C22.543 11.1929 22.4746 11.376 22.3379 11.5225C22.2012 11.6689 22.001 11.7422 21.7373 11.7422C21.4736 11.7422 21.2734 11.6689 21.1367 11.5225C21.0049 11.376 20.939 11.1929 20.939 10.9731ZM24.2568 16.9717C24.2568 15.7363 24.5425 14.7549 25.1138 14.0273C25.6851 13.2949 26.4419 12.9287 27.3843 12.9287C28.3511 12.9287 29.1055 13.2705 29.6475 13.9541L29.7134 13.0752H30.9512V20.8096C30.9512 21.835 30.646 22.6431 30.0356 23.2339C29.4302 23.8247 28.6147 24.1201 27.5894 24.1201C27.0181 24.1201 26.459 23.998 25.9121 23.7539C25.3652 23.5098 24.9478 23.1753 24.6597 22.7505L25.3628 21.9375C25.9438 22.6553 26.6543 23.0142 27.4941 23.0142C28.1533 23.0142 28.666 22.8286 29.0322 22.4575C29.4033 22.0864 29.5889 21.564 29.5889 20.8901V20.209C29.0469 20.834 28.3071 21.1465 27.3696 21.1465C26.4419 21.1465 25.6899 20.7729 25.1138 20.0259C24.5425 19.2788 24.2568 18.2607 24.2568 16.9717ZM25.6191 17.1255C25.6191 18.019 25.8022 18.7222 26.1685 19.2349C26.5347 19.7427 27.0474 19.9966 27.7065 19.9966C28.561 19.9966 29.1885 19.6084 29.5889 18.832V15.2139C29.1738 14.457 28.5513 14.0786 27.7212 14.0786C27.062 14.0786 26.5469 14.335 26.1758 14.8477C25.8047 15.3604 25.6191 16.1196 25.6191 17.1255ZM34.2837 13.0752L34.3276 14.0713C34.9331 13.3096 35.7241 12.9287 36.7007 12.9287C38.3755 12.9287 39.2202 13.8735 39.2349 15.7632V21H37.8799V15.7559C37.875 15.1846 37.7432 14.7622 37.4844 14.4888C37.2305 14.2153 36.8325 14.0786 36.2905 14.0786C35.8511 14.0786 35.4653 14.1958 35.1333 14.4302C34.8013 14.6646 34.5425 14.9722 34.3569 15.353V21H33.002V13.0752H34.2837ZM49.8916 20.2163C49.3643 20.8364 48.5903 21.1465 47.5698 21.1465C46.7251 21.1465 46.0806 20.9023 45.6362 20.4141C45.1968 19.9209 44.9746 19.1934 44.9697 18.2314V13.0752H46.3247V18.1948C46.3247 19.396 46.813 19.9966 47.7896 19.9966C48.8247 19.9966 49.5132 19.6108 49.855 18.8394V13.0752H51.21V21H49.9209L49.8916 20.2163ZM59.9697 17.1255C59.9697 18.3315 59.6938 19.3032 59.1421 20.0405C58.5903 20.7778 57.8433 21.1465 56.9009 21.1465C55.939 21.1465 55.1821 20.8413 54.6304 20.231V24.0469H53.2754V13.0752H54.5132L54.5791 13.9541C55.1309 13.2705 55.8975 12.9287 56.8789 12.9287C57.8311 12.9287 58.583 13.2876 59.1348 14.0054C59.6914 14.7231 59.9697 15.7217 59.9697 17.001V17.1255ZM58.6147 16.9717C58.6147 16.0781 58.4243 15.3726 58.0435 14.855C57.6626 14.3374 57.1401 14.0786 56.4761 14.0786C55.6558 14.0786 55.0405 14.4424 54.6304 15.1699V18.9565C55.0356 19.6792 55.6558 20.0405 56.4907 20.0405C57.1401 20.0405 57.6553 19.7842 58.0361 19.2715C58.4219 18.7539 58.6147 17.9873 58.6147 16.9717Z" fill="black"/>
<rect x="0.5" y="0.5" width="69" height="32" rx="16" stroke="black"/>
</svg>
